<?xml version="1.0" encoding="UTF-8" standalone="no"?>
<!-- Created with Inkscape (http://www.inkscape.org/) -->

<svg
   width="33.866665mm"
   height="33.866676mm"
   viewBox="0 0 33.866665 33.866676"
   version="1.1"
   id="svg1"
   xml:space="preserve"
   xmlns="http://www.w3.org/2000/svg"
   xmlns:svg="http://www.w3.org/2000/svg"><defs
     id="defs1" /><g
     id="layer1"
     transform="translate(-88.06666,-118.95126)"><g
       id="g2"><g
         id="g1"
         transform="matrix(-0.26458333,0,0,0.26458333,121.93333,118.95126)"><rect
           width="124"
           height="124"
           x="2"
           y="2"
           fill="#363d52"
           stroke="#212532"
           stroke-width="4"
           rx="14"
           id="rect1"
           ry="14" /><g
           fill="#ffffff"
           transform="matrix(0.101,0,0,0.101,12.322,12.322)"
           id="g4"><path
             d="m 105,673 v 33 q 407,354 814,0 v -33 z"
             id="path1-1"
             style="fill:#478cbf;fill-opacity:1" /><path
             fill="#478cbf"
             d="m 105,673 152,14 q 12,1 15,14 l 4,67 132,10 8,-61 q 2,-11 15,-15 h 162 q 13,4 15,15 l 8,61 132,-10 4,-67 q 3,-13 15,-14 L 919,673 V 427 q 30,-39 56,-81 -35,-59 -83,-108 -43,20 -82,47 -40,-37 -88,-64 7,-51 8,-102 -59,-28 -123,-42 -26,43 -46,89 -49,-7 -98,0 -20,-46 -46,-89 -64,14 -123,42 1,51 8,102 -48,27 -88,64 -39,-27 -82,-47 -48,49 -83,108 26,42 56,81 z m 0,33 v 39 c 0,276 813,276 814,0 v -39 l -134,12 -5,69 q -2,10 -14,13 l -162,11 q -12,0 -16,-11 L 578,735 H 446 l -10,65 q -4,11 -16,11 L 258,800 q -12,-3 -14,-13 l -5,-69 z"
             id="path2"
             style="fill:#478cbf;fill-opacity:1" /></g></g><path
         d="m 105,133.14043 q 0.58208,0 0.9966,-0.41451 0.41451,-0.41451 0.41451,-0.99659 0,-0.58211 -0.41451,-0.99661 -0.41452,-0.41451 -0.9966,-0.41451 -0.58208,0 -0.9966,0.41451 -0.41451,0.4145 -0.41451,0.99661 0,0.58208 0.41451,0.99659 0.41452,0.41451 0.9966,0.41451 z m 2.11667,11.28888 v -9.17222 q 1.05833,-0.0882 2.15194,-0.26453 1.09361,-0.17627 2.08139,-0.44096 l -0.35278,-1.41112 q -1.37583,0.37042 -2.92805,0.538 -1.55223,0.16746 -3.06917,0.16746 -1.51694,0 -3.06917,-0.16746 -1.55222,-0.16747 -2.928051,-0.538 l -0.352778,1.41112 q 0.987775,0.26453 2.081389,0.44096 1.09361,0.17626 2.15194,0.26453 v 9.17222 h 1.41111 v -4.23333 h 1.41112 v 4.23333 z"
         id="path1"
         style="fill:#f9f9f9;stroke-width:0.00661458" /></g></g></svg>
